REM MD5 df3bd0c679cdc6d511192480dfbb3560
FILE "DemoDemo PlayStation Vol. 3 (Japan).bin" BINARY
  TRACK 01 MODE2/2352
    INDEX 01 00:00:00
  TRACK 02 AUDIO
    INDEX 00 43:39:52
    INDEX 01 43:41:52
  TRACK 03 AUDIO
    INDEX 00 44:14:61
    INDEX 01 44:16:61
  TRACK 04 AUDIO
    INDEX 00 44:33:47
    INDEX 01 44:35:47
  TRACK 05 AUDIO
    INDEX 00 45:17:52
    INDEX 01 45:19:52
  TRACK 06 AUDIO
    INDEX 00 45:44:01
    INDEX 01 45:46:01
REM LEADOUT 48:33:73
